/* XPM */
const static char * applicationicon_xpm[] = {
"16 16 89 1",
" 	c None",
".	c #F3F3F3",
"+	c #E5E5E5",
"@	c #E4E4E4",
"#	c #E7E7E7",
"$	c #F6F6F6",
"%	c #FEFEFE",
"&	c #BDBDBD",
"*	c #4C4C4C",
"=	c #222222",
"-	c #1E1E1E",
";	c #1B1B1B",
">	c #232323",
",	c #303030",
"'	c #5B5B5B",
")	c #D7D7D7",
"!	c #F8F8F8",
"~	c #595959",
"{	c #0B0B0B",
"]	c #898989",
"^	c #DEDEDE",
"/	c #6A6A6A",
"(	c #747474",
"_	c #3B3B3B",
":	c #575757",
"<	c #6F6F6F",
"[	c #010101",
"}	c #717171",
"|	c #2C2C2C",
"1	c #4B4B4B",
"2	c #F1F1F1",
"3	c #DCDCDC",
"4	c #414141",
"5	c #8B8B8B",
"6	c #7B7B7B",
"7	c #7A7A7A",
"8	c #DADADA",
"9	c #313131",
"0	c #4F4F4F",
"a	c #F9F9F9",
"b	c #404040",
"c	c #E1E1E1",
"d	c #CDCDCD",
"e	c #FAFAFA",
"f	c #2E2E2E",
"g	c #000000",
"h	c #A3A3A3",
"i	c #535353",
"j	c #ECECEC",
"k	c #EBEBEB",
"l	c #2A2A2A",
"m	c #848484",
"n	c #1C1C1C",
"o	c #8D8D8D",
"p	c #D3D3D3",
"q	c #393939",
"r	c #676767",
"s	c #333333",
"t	c #616161",
"u	c #5D5D5D",
"v	c #3E3D3E",
"w	c #B5B5B5",
"x	c #A4A4A4",
"y	c #262626",
"z	c #151515",
"A	c #343434",
"B	c #BABABA",
"C	c #4A4A4A",
"D	c #808080",
"E	c #191919",
"F	c #E0E0E0",
"G	c #CCCCCC",
"H	c #090909",
"I	c #6D6D6D",
"J	c #D6D6D6",
"K	c #AEAEAE",
"L	c #171717",
"M	c #D8D8D8",
"N	c #464646",
"O	c #141414",
"P	c #E9E9E9",
"Q	c #242424",
"R	c #424242",
"S	c #6C6C6C",
"T	c #E2E2E2",
"U	c #C5C5C5",
"V	c #B9B9B9",
"W	c #BBBBBB",
"X	c #C9C9C9",
"                ",
"                ",
"                ",
"      .+@#$     ",
"    &*=-;>,')   ",
"  !~{]^/(_:<[}  ",
" #|12. 34567890a",
"$*b c4defghijklm",
"kno pqrgsg]t@euv",
" wgx yxzgABC DEF",
"  GHIJfGkKLMNO^ ",
"   PiQ|gggR>S   ",
"     TUBVWXP    ",
"                ",
"                ",
"                "};
