/* XPM */
const static char * cameraweb_xpm[] = {
"32 32 358 2",
"  	c None",
". 	c #396AA8",
"+ 	c #4676AD",
"@ 	c #4572AE",
"# 	c #3E689B",
"$ 	c #4F7BB1",
"% 	c #9FBEDE",
"& 	c #A3C1E0",
"* 	c #9EBDDD",
"= 	c #6891C0",
"- 	c #436B9F",
"; 	c #6F716E",
"> 	c #787A76",
", 	c #808D9A",
"' 	c #4B75AB",
") 	c #4673AD",
"! 	c #3667A5",
"~ 	c #3768A5",
"{ 	c #4B78B0",
"] 	c #5982B4",
"^ 	c #8E9AA3",
"/ 	c #8A8C88",
"( 	c #6E706D",
"_ 	c #A3A5A2",
": 	c #E1E1E1",
"< 	c #E2E2E2",
"[ 	c #DFDFDF",
"} 	c #E3E3E3",
"| 	c #E8E8E8",
"1 	c #EDEDED",
"2 	c #F2F2F2",
"3 	c #F0F0F0",
"4 	c #B8B9B7",
"5 	c #8E908C",
"6 	c #6B6D69",
"7 	c #7A7C79",
"8 	c #CECECD",
"9 	c #D4D4D4",
"0 	c #D8D8D8",
"a 	c #DDDDDD",
"b 	c #E5E5E5",
"c 	c #E9E9E9",
"d 	c #ECECEC",
"e 	c #EFEFEF",
"f 	c #F3F3F3",
"g 	c #F9F9F9",
"h 	c #E4E4E3",
"i 	c #9A9C97",
"j 	c #92948F",
"k 	c #7E7F7C",
"l 	c #E0DFDC",
"m 	c #D9D6C4",
"n 	c #D0CDB6",
"o 	c #D3D2CA",
"p 	c #D7D7D6",
"q 	c #DCDCDC",
"r 	c #EAEAEA",
"s 	c #EEEEEE",
"t 	c #F1F1F1",
"u 	c #F5F5F5",
"v 	c #F8F8F8",
"w 	c #FAFAFA",
"x 	c #FDFDFD",
"y 	c #F9FAF9",
"z 	c #9D9F9A",
"A 	c #686A67",
"B 	c #D2D3D0",
"C 	c #D4D2B5",
"D 	c #BAC70E",
"E 	c #C4CB0A",
"F 	c #C5CC75",
"G 	c #DBDBD3",
"H 	c #E0E0E0",
"I 	c #F6F6F6",
"J 	c #FFFFFF",
"K 	c #8C8E8A",
"L 	c #646763",
"M 	c #B7B7B6",
"N 	c #D9D9D4",
"O 	c #C0C582",
"P 	c #D7D42B",
"Q 	c #EAE476",
"R 	c #BAC53B",
"S 	c #DEDCCF",
"T 	c #C0C1C1",
"U 	c #7E7F7F",
"V 	c #484A4B",
"W 	c #494B4C",
"X 	c #858686",
"Y 	c #D5D6D6",
"Z 	c #D3D4D3",
"` 	c #8B8C87",
" .	c #80817F",
"..	c #C7C7C6",
"+.	c #CCCBB7",
"@.	c #B8C336",
"#.	c #B9C21F",
"$.	c #CFD296",
"%.	c #797974",
"&.	c #111313",
"*.	c #181A1A",
"=.	c #181C21",
"-.	c #181A1B",
";.	c #131516",
">.	c #898A8A",
",.	c #FEFEFE",
"'.	c #9EA19C",
").	c #5E605C",
"!.	c #ADADAC",
"~.	c #D3D3D3",
"{.	c #C6C6C6",
"].	c #CCCCCA",
"^.	c #D4D3C6",
"/.	c #DAD8C8",
"(.	c #73736E",
"_.	c #1C1F1E",
":.	c #222B34",
"<.	c #31435D",
"[.	c #6F7D91",
"}.	c #707D90",
"|.	c #222B35",
"1.	c #1B1D1E",
"2.	c #828383",
"3.	c #C9CAC8",
"4.	c #646561",
"5.	c #C7C7C7",
"6.	c #CDCDCD",
"7.	c #C8C8C8",
"8.	c #B2B3B3",
"9.	c #18191A",
"0.	c #29323D",
"a.	c #213755",
"b.	c #DCDFE3",
"c.	c #DADCDF",
"d.	c #203149",
"e.	c #28323D",
"f.	c #181919",
"g.	c #E3E4E2",
"h.	c #858682",
"i.	c #5E5F5C",
"j.	c #CECECE",
"k.	c #707171",
"l.	c #2A2D2E",
"m.	c #223551",
"n.	c #1C2E46",
"o.	c #8D9399",
"p.	c #B5B6B8",
"q.	c #B5B6B6",
"r.	c #8D8F92",
"s.	c #1B2633",
"t.	c #223249",
"u.	c #292C2D",
"v.	c #F7F7F7",
"w.	c #7E807B",
"x.	c #686A66",
"y.	c #C3C3C3",
"z.	c #C9C9C9",
"A.	c #CFCFCF",
"B.	c #D5D5D5",
"C.	c #3D3E3E",
"D.	c #383C41",
"E.	c #1E3453",
"F.	c #1C293B",
"G.	c #16191E",
"H.	c #070707",
"I.	c #1B1D1F",
"J.	c #1B1F25",
"K.	c #1E2C3D",
"L.	c #373C41",
"M.	c #484949",
"N.	c #80827D",
"O.	c #5B5D59",
"P.	c #C5C5C5",
"Q.	c #3B3C3C",
"R.	c #40444B",
"S.	c #1E3452",
"T.	c #1B2837",
"U.	c #141718",
"V.	c #000000",
"W.	c #313335",
"X.	c #27292B",
"Y.	c #1D2A39",
"Z.	c #404449",
"`.	c #454647",
" +	c #FBFBFB",
".+	c #5E615D",
"++	c #CBCBCB",
"@+	c #6C6D6D",
"#+	c #404243",
"$+	c #243955",
"%+	c #26292E",
"&+	c #343637",
"*+	c #48494A",
"=+	c #575A5B",
"-+	c #393D42",
";+	c #263343",
">+	c #3F4142",
",+	c #7F8080",
"'+	c #E8E9E8",
")+	c #7C7E79",
"!+	c #5A5C58",
"~+	c #B4B5B3",
"{+	c #D1D1D1",
"]+	c #B9B9B9",
"^+	c #2F3131",
"/+	c #454F5A",
"(+	c #1D2E46",
"_+	c #26303B",
":+	c #5B5B40",
"<+	c #7D7A4C",
"[+	c #827D42",
"}+	c #323C45",
"|+	c #474E57",
"1+	c #313333",
"2+	c #D6D6D6",
"3+	c #CECFCD",
"4+	c #747672",
"5+	c #90918F",
"6+	c #DBDBDB",
"7+	c #CCCCCC",
"8+	c #D2D2D2",
"9+	c #939595",
"0+	c #474748",
"a+	c #4A535F",
"b+	c #2F3E4A",
"c+	c #717032",
"d+	c #A69C22",
"e+	c #626749",
"f+	c #4F565F",
"g+	c #464748",
"h+	c #A1A2A2",
"i+	c #A6A7A4",
"j+	c #5A5C59",
"k+	c #CDCDCC",
"l+	c #CACACA",
"m+	c #D0D0D0",
"n+	c #E4E4E4",
"o+	c #AEAEAE",
"p+	c #4B4C4C",
"q+	c #57595A",
"r+	c #5F656A",
"s+	c #61676C",
"t+	c #4B4D4D",
"u+	c #E8E8E7",
"v+	c #727470",
"w+	c #6A6C68",
"x+	c #DEDEDE",
"y+	c #D9D9D9",
"z+	c #E7E7E7",
"A+	c #EBEBEB",
"B+	c #CECFCF",
"C+	c #9D9F9F",
"D+	c #9E9F9F",
"E+	c #A8A9A7",
"F+	c #A3A4A2",
"G+	c #7B7C7A",
"H+	c #585A58",
"I+	c #949593",
"J+	c #6E6F6C",
"K+	c #E2E3E2",
"L+	c #A5A6A4",
"M+	c #6E706C",
"N+	c #585A57",
"O+	c #9E9F9D",
"P+	c #DADADA",
"Q+	c #D7D7D7",
"R+	c #F4F4F4",
"S+	c #ADAEAD",
"T+	c #6B6C68",
"U+	c #585956",
"V+	c #666765",
"W+	c #C8C8C7",
"X+	c #D8D9D8",
"Y+	c #737571",
"Z+	c #676966",
"`+	c #525552",
" @	c #878986",
".@	c #BABBBA",
"+@	c #D5D6D5",
"@@	c #E9E9E8",
"#@	c #DDDDDC",
"$@	c #C6C7C5",
"%@	c #929392",
"&@	c #5D5F5C",
"*@	c #2D3335",
"=@	c #343534",
"-@	c #3A3B38",
";@	c #464745",
">@	c #555753",
",@	c #717371",
"'@	c #5C5E5B",
")@	c #5D5F5B",
"!@	c #575957",
"~@	c #5F615E",
"{@	c #676A69",
"]@	c #313839",
"^@	c #282E2F",
"/@	c #333737",
"(@	c #3A3B39",
"_@	c #373836",
":@	c #333432",
"<@	c #30312F",
"[@	c #343433",
"}@	c #3C3D3B",
"|@	c #424342",
"1@	c #484947",
"2@	c #555653",
"3@	c #767874",
"4@	c #818380",
"5@	c #535657",
"6@	c #404342",
"7@	c #515250",
"8@	c #525451",
"9@	c #2C3234",
"0@	c #383A39",
"a@	c #3B3C3A",
"b@	c #3C3D3A",
"c@	c #434442",
"d@	c #494B48",
"e@	c #525351",
"f@	c #5B5D5A",
"g@	c #656663",
"h@	c #717370",
"i@	c #7A7C78",
"j@	c #828481",
"k@	c #717471",
"l@	c #34393B",
"m@	c #2C3233",
"n@	c #363A38",
"o@	c #3F403D",
"p@	c #474846",
"q@	c #4F514E",
"r@	c #585957",
"s@	c #60625F",
"t@	c #696A67",
"u@	c #666A68",
"v@	c #303536",
"w@	c #2E3335",
"x@	c #373A38",
"y@	c #3C3E3C",
"z@	c #454745",
"A@	c #4E504D",
"B@	c #575856",
"C@	c #5C5E5C",
"D@	c #626462",
"E@	c #636664",
"F@	c #505453",
"G@	c #313639",
"H@	c #292E2F",
"I@	c #2C3132",
"J@	c #2D3435",
"K@	c #2D3436",
"L@	c #2E3436",
"M@	c #2E3537",
"N@	c #303637",
"O@	c #303636",
"P@	c #303437",
"Q@	c #292D2F",
"                                                                ",
"                            . + @ .                             ",
"                        # $ % % & * = -                         ",
"                    ; > , ' ) ! ~ { ] ^ / /                     ",
"                  ( _ : < : [ [ } | 1 2 3 4 5                   ",
"              6 7 8 : 9 9 0 a : b c d e f g h i j               ",
"              k l m n o p q : b r s t u v w x y z               ",
"            A B C D E F G H b r s f I w x J J J 3 K             ",
"          L M N O P Q R S T U V W X Y J J J J J J Z `           ",
"           .[ ..+.@.#.$.%.&.*.=.=.-.;.>.x J J J J ,.'.          ",
"        ).!.~.{.].^./.(._.:.<.[.}.<.|.1.2.J J J J J 3.          ",
"        4.5.6.7.6.~.8.9.0.a.b.J J c.d.e.f.Y J J J J g.h.        ",
"        i.a 5.7.j.9 k.l.m.n.o.p.q.r.s.t.u.2.J J J J v.w.        ",
"        x.< y.z.A.B.C.D.E.F.G.H.H.I.J.K.L.M.J J J J J N.        ",
"        O.: P.z.A.B.Q.R.S.T.U.V.V.W.X.Y.Z.`.J J J J  +>         ",
"        .+8 ++7.j.9 @+#+$+F.%+&+*+=+-+;+>+,+J J J J '+)+        ",
"        !+~+{+7.6.~.]+^+/+(+_+:+<+[+}+|+1+2+J J J J 3+4+        ",
"          5+6+{.7+8+a 9+0+a+b+c+d+e+f+g+h+J J J J J i+          ",
"          j+k+~.l+m+2+n+o+p+q+r+s+q+t+q. +J J J J u+v+          ",
"            w+x+6.j.~.y+z+A+B+C+D+{+3 J J E+F+J g G+            ",
"            H+I+H A.m+2+6+: A+2 u u I w u J+K+J L+M+            ",
"              N+O+: P+8+Q+q : b c 1 t R+v. +v.S+T+              ",
"                U+V+W+n+q q a : b | s 2 v.X+Y+Z+                ",
"                    `+ @.@+@@@d s 1 #@$@%@&@                    ",
"                  *@=@-@;@>@j+,@,@'@)@!@~@{@]@                  ",
"                ^@/@(@_@:@<@[@}@|@1@2@Z+3@4@5@6@7@8@>@          ",
"                9@0@a@a@(@b@c@d@e@f@g@h@i@j@k@l@                ",
"                m@n@a@a@a@o@p@q@r@s@t@h@i@j@u@v@                ",
"                  w@/@x@0@y@z@A@B@C@s@D@E@F@G@                  ",
"                    H@I@m@J@K@L@L@M@N@O@P@Q@                    ",
"                                                                ",
"                                                                "};
