/* XPM */
const static char * documentopen32_xpm[] = {
"32 32 173 2",
"  	c None",
". 	c #595B56",
"+ 	c #555753",
"@ 	c #565854",
"# 	c #585C57",
"$ 	c #5A5C55",
"% 	c #868977",
"& 	c #989B85",
"* 	c #91947F",
"= 	c #5D5E58",
"- 	c #E0E0D9",
"; 	c #BBBCAD",
"> 	c #B5B6A7",
", 	c #C0C0B2",
"' 	c #A5A797",
") 	c #575A55",
"! 	c #BEBFB2",
"~ 	c #8F927B",
"{ 	c #AFB0A0",
"] 	c #A5A698",
"^ 	c #686A64",
"/ 	c #636560",
"( 	c #5D5F5A",
"_ 	c #5B5D59",
": 	c #5B5D58",
"< 	c #5A5C58",
"[ 	c #585A56",
"} 	c #585A55",
"| 	c #595B55",
"1 	c #BCBDB1",
"2 	c #A1A38F",
"3 	c #B7B8A9",
"4 	c #BABBAC",
"5 	c #B2B3A3",
"6 	c #AEAF9E",
"7 	c #A8AA98",
"8 	c #A3A593",
"9 	c #9FA18D",
"0 	c #9A9C87",
"a 	c #929580",
"b 	c #565954",
"c 	c #888B75",
"d 	c #6F7266",
"e 	c #5A5C57",
"f 	c #5A5D58",
"g 	c #707367",
"h 	c #858773",
"i 	c #8D9079",
"j 	c #7A7D69",
"k 	c #FCFCFC",
"l 	c #FFFFFF",
"m 	c #787A67",
"n 	c #595C55",
"o 	c #BBBCB0",
"p 	c #898C76",
"q 	c #6E715F",
"r 	c #ECEDEB",
"s 	c #DBDCD8",
"t 	c #DBDCD9",
"u 	c #DCDDD9",
"v 	c #ECECEA",
"w 	c #6C6E5D",
"x 	c #B9B9AD",
"y 	c #858772",
"z 	c #6E6F5E",
"A 	c #EFEFED",
"B 	c #E2E3DF",
"C 	c #BABBB8",
"D 	c #B5B6B3",
"E 	c #B6B6B3",
"F 	c #BBBBB8",
"G 	c #E3E3E0",
"H 	c #EEEFED",
"I 	c #6B6D5C",
"J 	c #B5B5A9",
"K 	c #81836E",
"L 	c #6C6E5C",
"M 	c #F2F2F0",
"N 	c #E9E9E7",
"O 	c #E9EAE7",
"P 	c #EAEAE7",
"Q 	c #F1F1F0",
"R 	c #6A6B5B",
"S 	c #595B54",
"T 	c #B4B4A8",
"U 	c #7D7F6A",
"V 	c #6B6D5B",
"W 	c #F4F4F4",
"X 	c #EFEFEE",
"Y 	c #C6C6C4",
"Z 	c #C0C0BE",
"` 	c #F0F0EE",
" .	c #F5F5F4",
"..	c #696B5A",
"+.	c #575A54",
"@.	c #B3B3A7",
"#.	c #797A67",
"$.	c #6A6B5A",
"%.	c #F8F8F7",
"&.	c #F6F6F4",
"*.	c #F6F6F5",
"=.	c #F8F8F8",
"-.	c #686959",
";.	c #565853",
">.	c #B2B2A6",
",.	c #757663",
"'.	c #686958",
").	c #FBFBFB",
"!.	c #CFCFCF",
"~.	c #C9C9C9",
"{.	c #CACAC9",
"].	c #D0D0CF",
"^.	c #FCFCFB",
"/.	c #FDFDFC",
"(.	c #666757",
"_.	c #B1B1A5",
":.	c #71725F",
"<.	c #676856",
"[.	c #FDFDFD",
"}.	c #656656",
"|.	c #575A53",
"1.	c #AEAFA3",
"2.	c #6D6E5C",
"3.	c #656655",
"4.	c #F7F7F7",
"5.	c #F5F5F5",
"6.	c #646555",
"7.	c #565953",
"8.	c #A9A99E",
"9.	c #696958",
"0.	c #636353",
"a.	c #C3C4C2",
"b.	c #6A6C68",
"c.	c #575955",
"d.	c #5E6058",
"e.	c #62635E",
"f.	c #5C5D57",
"g.	c #5B5C57",
"h.	c #5A5B57",
"i.	c #676864",
"j.	c #656762",
"k.	c #656662",
"l.	c #C2C3AF",
"m.	c #98998B",
"n.	c #5C5F5A",
"o.	c #5B5D57",
"p.	c #949689",
"q.	c #B0B2A0",
"r.	c #B1B3A1",
"s.	c #B3B4A3",
"t.	c #BFC0AD",
"u.	c #C0C1AD",
"v.	c #7D7E75",
"w.	c #5A5D57",
"x.	c #8F9083",
"y.	c #BFC0AC",
"z.	c #61635D",
"A.	c #696B62",
"B.	c #BEBFAA",
"C.	c #B7B8A4",
"D.	c #B4B6A1",
"E.	c #BDBEA9",
"F.	c #9E9F8F",
"G.	c #5C5D58",
"H.	c #949587",
"I.	c #BBBCA7",
"J.	c #838478",
"K.	c #4E504D",
"L.	c #6C6E66",
"M.	c #B9BAA4",
"N.	c #BABBA5",
"O.	c #656760",
"P.	c #575954",
"                                                                ",
"                                                                ",
"                                                                ",
"                                                                ",
"      . + + + + + + + + + @ #                                   ",
"      $ % & & & & & & & & * =                                   ",
"      $ - ; > > > > > > > , ' )                                 ",
"      $ ! ~ ~ ~ ~ ~ ~ ~ ~ ~ { ] ^ / ( ( ( ( _ : < . [ } + |     ",
"      $ 1 ~ ~ ~ ~ ~ ~ ~ ~ ~ ~ 2 3 4 4 4 4 3 5 6 7 8 9 0 a b     ",
"      $ 1 ~ ~ c d e f f f f f f : : : : : : : : : : e g h b     ",
"      $ 1 i i j @ k l l l l l l l l l l l l l l l l k @ m @     ",
"      n o p p q + r s s t t t t t t t u u u u u u u v + w @     ",
"      | x y y z + A B C D D D D D D D E E E E E F G H + I @     ",
"      | J K K L + M N N N N N N N N N O O O P P P P Q + R @     ",
"      S T U U V + W X Y Z Z Z Z Z Z Z Z Z Z Z Z Y `  .+ ..@     ",
"      +.@.#.#.$.+ %. . . . . . .&.&.*.*.*.*.*.*.*.*.=.+ -.;.    ",
"      +.>.,.,.'.+ k ).!.~.~.~.~.~.~.~.~.~.{.{.{.].^./.+ (.;.    ",
"      +._.:.:.<.+ [.k k k k k k k k k k k k ).).).).k + }.;.    ",
"      |.1.2.2.3.+ 4.5.5.5.5.5.5.5. . . . . . . . . .5.+ 6.;.    ",
"      7.8.9.9.0.+ Q X a.b.+ + + + + + + + + + + + + + + + + c.d.",
"    ( e e.f.f.g.h.i.j.k.' l.l.l.l.l.l.l.l.l.l.l.l.l.l.l.l.l.m.n.",
"  o.p.q.r.r.r.r.r.r.s.t.u.u.u.u.u.u.u.u.u.u.u.u.u.u.u.u.u.u.v.  ",
"  w.x.y.y.y.y.y.y.y.y.y.y.y.y.y.y.y.y.y.y.y.y.y.y.y.y.y.y.y.z.  ",
"    A.B.B.B.B.B.B.B.B.B.B.B.B.B.B.B.B.B.B.B.B.B.B.B.B.B.B.C.}   ",
"    } D.E.E.E.E.E.E.E.E.E.E.E.E.E.E.E.E.E.E.E.E.E.E.E.E.E.F.G.  ",
"    b H.I.I.I.I.I.I.I.I.I.I.I.I.I.I.I.I.I.I.I.I.I.I.I.I.I.J.K.  ",
"      L.M.N.N.N.N.N.N.N.N.N.N.N.N.N.N.N.N.N.N.N.N.N.N.N.M.O.    ",
"      P.;.+ + + + + + + + + + + + + + + + + + + + + + + ;.[     ",
"                                                                ",
"                                                                ",
"                                                                ",
"                                                                "};
