/* XPM */
const static char * mediaplaybackstart16_xpm[] = {
"16 16 51 1",
" 	c None",
".	c #464744",
"+	c #424240",
"@	c #B6B7B5",
"#	c #50514F",
"$	c #FFFFFF",
"%	c #E2E2E1",
"&	c #8F918E",
"*	c #4F514E",
"=	c #E1E2E0",
"-	c #A6A8A3",
";	c #D4D5D2",
">	c #E0E0DF",
",	c #70706E",
"'	c #5D5E5C",
")	c #E5E5E4",
"!	c #B1B2AE",
"~	c #BBBDB9",
"{	c #CBCCCA",
"]	c #E8E9E7",
"^	c #CDCECC",
"/	c #626261",
"(	c #7F7F7D",
"_	c #E9E9E8",
":	c #BEC0BD",
"<	c #C9CAC7",
"[	c #D3D4D2",
"}	c #DEDFDD",
"|	c #EAEAE9",
"1	c #60615E",
"2	c #969794",
"3	c #EDEDEC",
"4	c #CCCECB",
"5	c #D7D8D5",
"6	c #ECEDEC",
"7	c #D1D2D0",
"8	c #686866",
"9	c #91918F",
"0	c #F1F1F1",
"a	c #DBDCDA",
"b	c #ECECEB",
"c	c #E2E3E2",
"d	c #777875",
"e	c #757774",
"f	c #969795",
"g	c #646462",
"h	c #C3C3C3",
"i	c #C4C4C3",
"j	c #5B5C59",
"k	c #9B9D9B",
"l	c #7D7F7C",
"                ",
"                ",
"   .+           ",
"   .@#          ",
"   .$%&*        ",
"   .=-;>,'      ",
"   .)!~{]^/(    ",
"   ._:<[}|$12   ",
"   .345=6789    ",
"   .0abcde      ",
"   .$6fgh       ",
"   .ijk         ",
"   .l           ",
"                ",
"                ",
"                "};
