/* XPM */
const static char * mediaplaybackpause16_xpm[] = {
"16 16 20 1",
" 	c None",
".	c #555753",
"+	c #E8E8E7",
"@	c #E5E6E4",
"#	c #E4E5E4",
"$	c #EBEBEA",
"%	c #BFC0BD",
"&	c #E7E8E6",
"*	c #EDEDED",
"=	c #CBCCCA",
"-	c #EAEBEA",
";	c #F0F1F0",
">	c #D8D9D6",
",	c #EEEFED",
"'	c #F2F2F1",
")	c #DEDFDD",
"!	c #F0F0EF",
"~	c #F1F1F0",
"{	c #EFEFEE",
"]	c #EEEFEE",
"                ",
"                ",
"                ",
"   .... ....    ",
"   .++. .@#.    ",
"   .$%. .%&.    ",
"   .*=. .=-.    ",
"   .;>. .>,.    ",
"   .'). .)!.    ",
"   .~). .){.    ",
"   .!!. .]].    ",
"   .... ....    ",
"                ",
"                ",
"                ",
"                "};
