/* XPM */
const static char * windowclose32_xpm[] = {
"32 32 161 2",
"  	c None",
". 	c #585A56",
"+ 	c #565854",
"@ 	c #585956",
"# 	c #585B56",
"$ 	c #636461",
"% 	c #A0A19E",
"& 	c #AFB0AD",
"* 	c #999A97",
"= 	c #5F615D",
"- 	c #5A5C58",
"; 	c #979895",
"> 	c #AEAFAC",
", 	c #A1A39F",
"' 	c #646763",
") 	c #9FA09D",
"! 	c #9A9C98",
"~ 	c #8A8C87",
"{ 	c #A8A9A5",
"] 	c #A8A9A6",
"^ 	c #5E5F5C",
"/ 	c #5C5D5A",
"( 	c #A3A5A1",
"_ 	c #979995",
": 	c #ADAFAB",
"< 	c #898B86",
"[ 	c #A4A6A3",
"} 	c #A4A6A2",
"| 	c #AEB0AC",
"1 	c #585A57",
"2 	c #A6A7A4",
"3 	c #8C8E89",
"4 	c #8D8F8A",
"5 	c #A3A4A0",
"6 	c #A9ABA7",
"7 	c #5E605C",
"8 	c #A6A8A4",
"9 	c #A8AAA6",
"0 	c #989895",
"a 	c #595A58",
"b 	c #5E605D",
"c 	c #A4A5A2",
"d 	c #8E908B",
"e 	c #8F918C",
"f 	c #A5A7A3",
"g 	c #ABACA9",
"h 	c #5F605C",
"i 	c #A7A9A6",
"j 	c #A7A8A5",
"k 	c #5D5F5B",
"l 	c #5C5E58",
"m 	c #A4A5A1",
"n 	c #A5A6A2",
"o 	c #90928D",
"p 	c #92948F",
"q 	c #A7A9A4",
"r 	c #ADAEAA",
"s 	c #5F605D",
"t 	c #AAABA8",
"u 	c #5B5C59",
"v 	c #5C5E5A",
"w 	c #A6A7A3",
"x 	c #91938E",
"y 	c #939590",
"z 	c #949691",
"A 	c #AEAFAB",
"B 	c #AAACA8",
"C 	c #ACAEAA",
"D 	c #959792",
"E 	c #979994",
"F 	c #ABADA9",
"G 	c #B2B4B1",
"H 	c #B0B2AE",
"I 	c #AAABA7",
"J 	c #999B96",
"K 	c #A5A7A2",
"L 	c #A9AAA7",
"M 	c #ABACA8",
"N 	c #989A95",
"O 	c #9D9F9B",
"P 	c #8F928C",
"Q 	c #90928C",
"R 	c #929490",
"S 	c #969893",
"T 	c #A0A29D",
"U 	c #595B57",
"V 	c #9C9E9B",
"W 	c #848781",
"X 	c #858882",
"Y 	c #868784",
"Z 	c #868984",
"` 	c #8F928D",
" .	c #9FA19E",
"..	c #5D5E5A",
"+.	c #9D9E9A",
"@.	c #989A97",
"#.	c #878884",
"$.	c #878984",
"%.	c #888A85",
"&.	c #888A86",
"*.	c #A0A39E",
"=.	c #5D5E5B",
"-.	c #9E9F9D",
";.	c #9A9C97",
">.	c #878A85",
",.	c #898A85",
"'.	c #91938D",
").	c #91948F",
"!.	c #888B86",
"~.	c #9C9E99",
"{.	c #A1A29E",
"].	c #9EA09D",
"^.	c #9C9E9A",
"/.	c #898B85",
"(.	c #898C86",
"_.	c #999C97",
":.	c #A0A39F",
"<.	c #A1A19F",
"[.	c #9D9F9A",
"}.	c #8B8D87",
"|.	c #8B8D88",
"1.	c #A1A29F",
"2.	c #9B9D99",
"3.	c #A0A29E",
"4.	c #9E9F9C",
"5.	c #9FA19C",
"6.	c #9FA09C",
"7.	c #9B9C99",
"8.	c #A1A19E",
"9.	c #9B9C98",
"0.	c #5B5D59",
"a.	c #868883",
"b.	c #989A96",
"c.	c #989995",
"d.	c #8A8B88",
"e.	c #969793",
"f.	c #9A9B97",
"g.	c #5B5E58",
"h.	c #979894",
"i.	c #8E8F8B",
"j.	c #585C57",
"k.	c #565955",
"l.	c #9B9D98",
"m.	c #939591",
"n.	c #949591",
"o.	c #9FA19D",
"p.	c #555753",
"q.	c #575855",
"r.	c #8B8C88",
"s.	c #92938F",
"t.	c #959793",
"u.	c #90918D",
"v.	c #575955",
"w.	c #888985",
"x.	c #5B5C58",
"y.	c #878885",
"z.	c #8D8E8B",
"A.	c #555754",
"B.	c #565954",
"C.	c #555852",
"D.	c #555854",
"                                                                ",
"                                                                ",
"                                                                ",
"                                                                ",
"            . + @                             # + .             ",
"          $ % & * =                         - ; > , '           ",
"        . ) ! ~ { ] ^                     / ( ( ~ _ , .         ",
"        + : ~ < ~ , ] ^                 / [ } ~ < < | +         ",
"        1 ; 2 ~ 3 4 5 6 7             / 8 8 4 3 ~ 9 0 a         ",
"          b c ( 3 d e f g h         / i 9 e d 3 5 j k           ",
"            l m n e o p q r s     / 6 t p o e } [ u             ",
"              v w 8 x y z 6 A - . B C z y x f 2 u               ",
"                v j 9 y D E F G H A E D y { i /                 ",
"                  v 9 I D E J K w J E D 6 L /                   ",
"                    v 6 M E N J J N E I t /                     ",
"                      . 6 O P Q R S T > U                       ",
"                      . V 4 W X Y Z `  .U                       ",
"                    ..+.@.Z #.#.$.%.&.! *.=.                    ",
"                  v -.;.>.>.,.'.).< < !.~.{.=.                  ",
"                / ].^./.(.~ _.:.<.[.}.|.~ O 1.=.                ",
"              / ) O ~ ~ ~ 2.3.U . 4.5.|.|.|.O 6.=.              ",
"            / 7.2.< ~ |.^.8.v     v +.5.|.~ < 9.2./             ",
"          0.* N a.$.%.b.O v         l ! 2.%.$.a.c.! k           ",
"        . d.c.a.a.a.e.f.0.            g.h.N a.a.a.! i.j.        ",
"        k.l.< a.a.m.h.0.                U n.e.a.a.%.o.p.        ",
"        q.r.m.$.y z 0.                    U s.t.%.p u.v.        ",
"          u ~ b.w.x.                        U y.b.z.=           ",
"            A.B.p.                            C.+ D.            ",
"                                                                ",
"                                                                ",
"                                                                ",
"                                                                "};
